<mxfile host="app.diagrams.net" agent="Mozilla/5.0 (Windows NT 10.0; Win64; x64; rv:132.0) Gecko/20100101 Firefox/132.0" version="24.8.4">
  <diagram name="Sayfa -1" id="1quQN10a4pkA71LAkPjm">
    <mxGraphModel dx="1621" dy="502" grid="1" gridSize="10" guides="1" tooltips="1" connect="1" arrows="1" fold="1" page="1" pageScale="1" pageWidth="827" pageHeight="1169" math="0" shadow="0">
      <root>
        <mxCell id="0" />
        <mxCell id="1" parent="0" />
        <mxCell id="wPWShLTDEAV7FmnaPbUX-3" value="" style="edgeStyle=orthogonalEdgeStyle;rounded=0;orthogonalLoop=1;jettySize=auto;html=1;" edge="1" parent="1" source="wPWShLTDEAV7FmnaPbUX-1">
          <mxGeometry relative="1" as="geometry">
            <mxPoint x="390" y="140" as="targetPoint" />
          </mxGeometry>
        </mxCell>
        <mxCell id="wPWShLTDEAV7FmnaPbUX-1" value="START" style="ellipse;whiteSpace=wrap;html=1;" vertex="1" parent="1">
          <mxGeometry x="330" y="30" width="120" height="80" as="geometry" />
        </mxCell>
        <mxCell id="wPWShLTDEAV7FmnaPbUX-6" value="" style="edgeStyle=orthogonalEdgeStyle;rounded=0;orthogonalLoop=1;jettySize=auto;html=1;" edge="1" parent="1" source="wPWShLTDEAV7FmnaPbUX-2" target="wPWShLTDEAV7FmnaPbUX-4">
          <mxGeometry relative="1" as="geometry" />
        </mxCell>
        <mxCell id="wPWShLTDEAV7FmnaPbUX-2" value="&#39;Pozitif bir sayı giriniz.&#39;" style="shape=document;whiteSpace=wrap;html=1;boundedLbl=1;" vertex="1" parent="1">
          <mxGeometry x="330" y="140" width="120" height="80" as="geometry" />
        </mxCell>
        <mxCell id="wPWShLTDEAV7FmnaPbUX-8" value="" style="edgeStyle=orthogonalEdgeStyle;rounded=0;orthogonalLoop=1;jettySize=auto;html=1;" edge="1" parent="1" source="wPWShLTDEAV7FmnaPbUX-4">
          <mxGeometry relative="1" as="geometry">
            <mxPoint x="390" y="360" as="targetPoint" />
          </mxGeometry>
        </mxCell>
        <mxCell id="wPWShLTDEAV7FmnaPbUX-4" value="N" style="shape=card;whiteSpace=wrap;html=1;" vertex="1" parent="1">
          <mxGeometry x="350" y="250" width="80" height="60" as="geometry" />
        </mxCell>
        <mxCell id="wPWShLTDEAV7FmnaPbUX-10" value="" style="edgeStyle=orthogonalEdgeStyle;rounded=0;orthogonalLoop=1;jettySize=auto;html=1;" edge="1" parent="1" source="wPWShLTDEAV7FmnaPbUX-7">
          <mxGeometry relative="1" as="geometry">
            <mxPoint x="390" y="460" as="targetPoint" />
          </mxGeometry>
        </mxCell>
        <mxCell id="wPWShLTDEAV7FmnaPbUX-7" value="tersSayi = 0" style="whiteSpace=wrap;html=1;" vertex="1" parent="1">
          <mxGeometry x="330" y="360" width="120" height="60" as="geometry" />
        </mxCell>
        <mxCell id="wPWShLTDEAV7FmnaPbUX-9" value="N DIV 10 = 0" style="shape=hexagon;perimeter=hexagonPerimeter2;whiteSpace=wrap;html=1;fixedSize=1;" vertex="1" parent="1">
          <mxGeometry x="330" y="460" width="120" height="80" as="geometry" />
        </mxCell>
        <mxCell id="wPWShLTDEAV7FmnaPbUX-11" value="" style="endArrow=classic;html=1;rounded=0;" edge="1" parent="1">
          <mxGeometry width="50" height="50" relative="1" as="geometry">
            <mxPoint x="450" y="500" as="sourcePoint" />
            <mxPoint x="510" y="550" as="targetPoint" />
            <Array as="points">
              <mxPoint x="510" y="500" />
            </Array>
          </mxGeometry>
        </mxCell>
        <mxCell id="wPWShLTDEAV7FmnaPbUX-12" value="T" style="text;html=1;align=center;verticalAlign=middle;resizable=0;points=[];autosize=1;strokeColor=none;fillColor=none;" vertex="1" parent="1">
          <mxGeometry x="485" y="468" width="30" height="30" as="geometry" />
        </mxCell>
        <mxCell id="wPWShLTDEAV7FmnaPbUX-14" value="&#39;Hata!&#39;" style="shape=document;whiteSpace=wrap;html=1;boundedLbl=1;" vertex="1" parent="1">
          <mxGeometry x="460" y="550" width="120" height="80" as="geometry" />
        </mxCell>
        <mxCell id="wPWShLTDEAV7FmnaPbUX-15" value="" style="endArrow=classic;html=1;rounded=0;" edge="1" parent="1">
          <mxGeometry width="50" height="50" relative="1" as="geometry">
            <mxPoint x="330" y="498" as="sourcePoint" />
            <mxPoint x="140" y="560" as="targetPoint" />
            <Array as="points">
              <mxPoint x="140" y="498" />
            </Array>
          </mxGeometry>
        </mxCell>
        <mxCell id="wPWShLTDEAV7FmnaPbUX-16" value="F" style="text;html=1;align=center;verticalAlign=middle;resizable=0;points=[];autosize=1;strokeColor=none;fillColor=none;" vertex="1" parent="1">
          <mxGeometry x="260" y="468" width="30" height="30" as="geometry" />
        </mxCell>
        <mxCell id="wPWShLTDEAV7FmnaPbUX-17" value="N &amp;gt; 10" style="shape=hexagon;perimeter=hexagonPerimeter2;whiteSpace=wrap;html=1;fixedSize=1;" vertex="1" parent="1">
          <mxGeometry x="80" y="560" width="120" height="80" as="geometry" />
        </mxCell>
        <mxCell id="wPWShLTDEAV7FmnaPbUX-18" value="" style="endArrow=classic;html=1;rounded=0;" edge="1" parent="1">
          <mxGeometry width="50" height="50" relative="1" as="geometry">
            <mxPoint x="190" y="620" as="sourcePoint" />
            <mxPoint x="220" y="680" as="targetPoint" />
            <Array as="points">
              <mxPoint x="220" y="640" />
            </Array>
          </mxGeometry>
        </mxCell>
        <mxCell id="wPWShLTDEAV7FmnaPbUX-21" value="" style="edgeStyle=orthogonalEdgeStyle;rounded=0;orthogonalLoop=1;jettySize=auto;html=1;" edge="1" parent="1" source="wPWShLTDEAV7FmnaPbUX-19" target="wPWShLTDEAV7FmnaPbUX-20">
          <mxGeometry relative="1" as="geometry" />
        </mxCell>
        <mxCell id="wPWShLTDEAV7FmnaPbUX-19" value="&lt;div&gt;digit = N DIV 10&lt;/div&gt;&lt;div&gt;tersSayi = tersSayi + digit&lt;br&gt;&lt;/div&gt;" style="rounded=0;whiteSpace=wrap;html=1;" vertex="1" parent="1">
          <mxGeometry x="160" y="680" width="150" height="60" as="geometry" />
        </mxCell>
        <mxCell id="wPWShLTDEAV7FmnaPbUX-20" value="&lt;div&gt;tersSayi = tersSayi * 10&lt;/div&gt;&lt;div&gt;N = N DIV 10&lt;br&gt;&lt;/div&gt;" style="rounded=0;whiteSpace=wrap;html=1;" vertex="1" parent="1">
          <mxGeometry x="170" y="790" width="130" height="60" as="geometry" />
        </mxCell>
        <mxCell id="wPWShLTDEAV7FmnaPbUX-22" value="" style="endArrow=classic;html=1;rounded=0;" edge="1" parent="1">
          <mxGeometry width="50" height="50" relative="1" as="geometry">
            <mxPoint x="240" y="850" as="sourcePoint" />
            <mxPoint x="360" y="890" as="targetPoint" />
            <Array as="points">
              <mxPoint x="240" y="890" />
            </Array>
          </mxGeometry>
        </mxCell>
        <mxCell id="wPWShLTDEAV7FmnaPbUX-23" value="" style="endArrow=classic;html=1;rounded=0;" edge="1" parent="1">
          <mxGeometry width="50" height="50" relative="1" as="geometry">
            <mxPoint x="360" y="890" as="sourcePoint" />
            <mxPoint x="360" y="560" as="targetPoint" />
          </mxGeometry>
        </mxCell>
        <mxCell id="wPWShLTDEAV7FmnaPbUX-24" value="" style="endArrow=classic;html=1;rounded=0;entryX=1;entryY=0.25;entryDx=0;entryDy=0;" edge="1" parent="1" target="wPWShLTDEAV7FmnaPbUX-17">
          <mxGeometry width="50" height="50" relative="1" as="geometry">
            <mxPoint x="360" y="560" as="sourcePoint" />
            <mxPoint x="240" y="580" as="targetPoint" />
            <Array as="points">
              <mxPoint x="230" y="560" />
            </Array>
          </mxGeometry>
        </mxCell>
        <mxCell id="wPWShLTDEAV7FmnaPbUX-26" value="tersSayi = tersSayi + digit" style="rounded=0;whiteSpace=wrap;html=1;" vertex="1" parent="1">
          <mxGeometry x="-40" y="690" width="160" height="60" as="geometry" />
        </mxCell>
        <mxCell id="wPWShLTDEAV7FmnaPbUX-27" value="" style="endArrow=classic;html=1;rounded=0;" edge="1" parent="1">
          <mxGeometry width="50" height="50" relative="1" as="geometry">
            <mxPoint x="100" y="640" as="sourcePoint" />
            <mxPoint x="100" y="690" as="targetPoint" />
          </mxGeometry>
        </mxCell>
        <mxCell id="wPWShLTDEAV7FmnaPbUX-28" value="" style="endArrow=classic;html=1;rounded=0;" edge="1" parent="1">
          <mxGeometry width="50" height="50" relative="1" as="geometry">
            <mxPoint x="100" y="750" as="sourcePoint" />
            <mxPoint x="100" y="820" as="targetPoint" />
          </mxGeometry>
        </mxCell>
        <mxCell id="wPWShLTDEAV7FmnaPbUX-30" value="&#39;Bu sayının tersi&#39;, tersSayi" style="shape=document;whiteSpace=wrap;html=1;boundedLbl=1;" vertex="1" parent="1">
          <mxGeometry x="20" y="820" width="120" height="80" as="geometry" />
        </mxCell>
        <mxCell id="wPWShLTDEAV7FmnaPbUX-31" value="" style="endArrow=classic;html=1;rounded=0;" edge="1" parent="1">
          <mxGeometry width="50" height="50" relative="1" as="geometry">
            <mxPoint x="79.5" y="890" as="sourcePoint" />
            <mxPoint x="290" y="1010" as="targetPoint" />
            <Array as="points">
              <mxPoint x="80" y="1010" />
            </Array>
          </mxGeometry>
        </mxCell>
        <mxCell id="wPWShLTDEAV7FmnaPbUX-32" value="" style="endArrow=classic;html=1;rounded=0;" edge="1" parent="1">
          <mxGeometry width="50" height="50" relative="1" as="geometry">
            <mxPoint x="519.5" y="620" as="sourcePoint" />
            <mxPoint x="290" y="1010" as="targetPoint" />
            <Array as="points">
              <mxPoint x="520" y="1010" />
            </Array>
          </mxGeometry>
        </mxCell>
        <mxCell id="wPWShLTDEAV7FmnaPbUX-33" value="" style="endArrow=classic;html=1;rounded=0;" edge="1" parent="1">
          <mxGeometry width="50" height="50" relative="1" as="geometry">
            <mxPoint x="290" y="1010" as="sourcePoint" />
            <mxPoint x="290" y="1050" as="targetPoint" />
          </mxGeometry>
        </mxCell>
        <mxCell id="wPWShLTDEAV7FmnaPbUX-34" value="STOP" style="ellipse;whiteSpace=wrap;html=1;" vertex="1" parent="1">
          <mxGeometry x="230" y="1050" width="120" height="80" as="geometry" />
        </mxCell>
      </root>
    </mxGraphModel>
  </diagram>
</mxfile>
